<svg fill="#000000" version="1.1" id="Capa_1" xmlns="http://www.w3.org/2000/svg" xmlns:xlink="http://www.w3.org/1999/xlink" viewBox="0 0 101.638 101.638" xml:space="preserve"><g id="SVGRepo_bgCarrier" stroke-width="0"></g><g id="SVGRepo_tracerCarrier" stroke-linecap="round" stroke-linejoin="round"></g><g id="SVGRepo_iconCarrier"> <g> <g> <path d="M82.357,42.881h-3.613c-1.91-9.002-9.904-15.61-19.199-15.61H45.576c-9.293,0-17.291,6.608-19.2,15.61h-7.103 C8.644,42.881,0,51.527,0,62.157v7.323h6.139v-3.504H3.504v-3.819c0-8.695,7.072-15.771,15.77-15.771h10.116l0.2-1.525 c1.062-8.031,7.934-14.089,15.99-14.089h13.969c8.056,0,14.928,6.058,15.992,14.089l0.198,1.525h6.625 c8.699,0,15.77,7.076,15.77,15.771v3.819h-2.93v3.504h6.434v-7.323C101.631,51.531,92.986,42.881,82.357,42.881z"></path> <path d="M18.905,54.932c5.366,0,9.717,4.35,9.717,9.72c0,5.365-4.351,9.715-9.717,9.715c-5.368,0-9.717-4.35-9.717-9.715 C9.188,59.282,13.538,54.932,18.905,54.932z"></path> <path d="M81.604,54.932c5.366,0,9.719,4.35,9.719,9.72c0,5.365-4.353,9.715-9.719,9.715s-9.719-4.35-9.719-9.715 C71.886,59.282,76.238,54.932,81.604,54.932z"></path> <path d="M46.302,48.903c-8.725,0.927-8.2,10.092-4.716,14.161c-4.567,3.408-7.693,5.335-7.693,5.335l6.802-0.359 c0,0,1.136-1.222,2.814-3.032c4.03,3.556,10.719,6.608,16.995,0.332c6.793-6.789,6.646-25.776,6.646-25.776 S67.149,46.676,46.302,48.903z"></path> </g> </g> </g></svg>