<svg height="64px" width="64px" version="1.1" id="Capa_1" xmlns="http://www.w3.org/2000/svg" viewBox="0 0 380.027 380.027" xml:space="preserve" fill="#000000"><g id="SVGRepo_iconCarrier"> <g> <path style="fill:#211915;" d="M350.517,170.253l-3.83-2.341c-22.809-13.94-48.993-21.31-75.724-21.31h-32.165 c-0.164-0.135-0.323-0.273-0.498-0.398l-42.321-30.499c-8.181-5.895-17.835-9.011-27.919-9.011h-13.185c-5.522,0-10,4.478-10,10 s4.478,10,10,10h13.185c2.312,0,4.582,0.292,6.779,0.844v19.064h-48.943v-15.048c0-5.522-4.478-10-10-10s-10,4.478-10,10v10.066 l-9.712-3.684c-1.187-0.45-2.384-0.875-3.587-1.277v-2.658c0-5.522-4.478-10-10-10c-4.943,0-9.039,3.591-9.846,8.305 c-12.544-1.406-25.353-0.396-37.521,3.097l-27.989,8.033c-2.688,0.772-4.932,2.635-6.184,5.137 c-1.252,2.501-1.399,5.413-0.405,8.028l7.061,18.579l-3.688,24.457c-0.017,0.111-0.031,0.223-0.044,0.335 c-1.323,11.364,2.281,22.783,9.89,31.328c5.17,5.806,11.874,9.925,19.229,11.972c3.893,17.185,19.278,30.06,37.623,30.06 c17.817,0,32.846-12.143,37.263-28.585h159.458c4.417,16.442,19.446,28.585,37.263,28.585s32.845-12.143,37.262-28.585h16.189 c12.06,0,21.87-9.811,21.87-21.869v-0.001C380.027,201.545,368.72,181.38,350.517,170.253z M194.839,139.537l9.804,7.065h-9.804 V139.537z M89.307,234.748c0,10.248-8.337,18.585-18.585,18.585c-10.247,0-18.584-8.337-18.584-18.585 c0-10.247,8.337-18.584,18.584-18.584C80.97,216.164,89.307,224.501,89.307,234.748z M323.29,234.748 c0,10.248-8.337,18.585-18.584,18.585c-10.248,0-18.585-8.337-18.585-18.585c0-10.247,8.337-18.584,18.585-18.584 C314.953,216.164,323.29,224.501,323.29,234.748z M358.157,224.748h-16.189c-4.417-16.442-19.445-28.584-37.262-28.584 s-32.846,12.142-37.263,28.584H107.985c-4.417-16.442-19.446-28.584-37.263-28.584c-16.918,0-31.317,10.95-36.51,26.131 c-1.997-1.093-3.827-2.521-5.404-4.293c-3.839-4.312-5.604-9.833-4.979-15.564l4.052-26.866c0.256-1.7,0.069-3.437-0.541-5.044 l-4.129-10.865l17.537-5.033c15.803-4.535,32.971-3.822,48.342,2.008l24.559,9.315c1.134,0.43,2.335,0.65,3.547,0.65h153.768 c23.049,0,45.627,6.354,65.294,18.374l3.829,2.341c12.301,7.519,19.941,21.146,19.941,35.562 C360.027,223.909,359.189,224.748,358.157,224.748z"></path> </g> </g></svg>